<svg xmlns="http://www.w3.org/2000/svg" enable-background="new 0 0 100 100" viewBox="0 0 100 100" id="crunchyroll">
  <g id="Layer_2">
    <path fill="#f60" d="M95.861,43.517c-7.059-44.746-67.18-53.838-87.55-13.491c-14.094,28.783,5.422,62.6,37.287,65.569
				c-0.246,0.138,11.835,0.216,5.657-0.32c-2.384-0.191-5.999-0.995-8.814-1.959C6.051,80.491,6.181,30.216,42.617,17.612
				c23.974-8.48,50.92,8.586,53.287,33.766c0.096,1.138,0.173,1.413,0.319,1.15C96.493,52.047,96.261,46.285,95.861,43.517z"></path>
    <path fill="#f60" d="M88.716,53.078c-8.249,8.928-23.788,3.74-25.163-8.21c-0.951-6.583,3.482-13.149,9.804-15.499
				C26.439,7.838,3.291,82.524,55.402,89.897C76.571,91.661,93.966,72.754,90.013,52C89.961,51.915,89.377,52.4,88.716,53.078z"></path>
    <g>
      <path d="M97.016,43.345c-7.208-45.86-68.82-55.16-89.693-13.832C-8.18,59.87,15.735,97.621,49.891,96.826
				c2.059,0.007,4.724,0.182,4.589-1.541c0.067-1.521-1.394-1.638-3.085-1.774c-40.469-4.469-47.46-61.176-8.237-74.31
				c1.795-0.617,0.903-3.336-0.919-2.754C21.067,23.115,8.63,47.441,16.038,68.35c3.366,10.091,10.686,18.535,20.126,23.495
				C-15.722,73.284,3.163-1.012,57.642,6.589c6.326,1.151,12.11,3.451,17.191,6.837c8.353,5.567,14.373,13.392,17.45,22.519
				c-8.754-16.05-27.103-24.539-44.972-20.853c-1.869,0.423-1.298,3.191,0.577,2.846c21.663-4.874,44.29,11.514,46.288,33.543
				c0.099,1.172,0.193,2.279,1.361,2.531c0.503,0.11,1.243-0.036,1.671-0.8C97.926,51.926,97.107,43.974,97.016,43.345z"></path>
      <path d="M87.445,52.034C71.522,66.405,53.589,39.72,73.848,30.813c1.093-0.468,1.092-2.164-0.007-2.628
				C49.887,15.26,19.522,36.237,24.635,63.472c0.381,1.878,3.147,1.383,2.859-0.503C23.811,41.63,43.081,23.674,64.071,27.807
				c1.898,0.385,3.979,1.021,5.776,1.754c-12.221,7.328-9.647,25.112,3.988,28.92c5.082,1.398,11.101-0.055,14.891-3.652
				c2.61,36.588-48.105,46.457-60.213,12.237c-0.605-1.805-3.328-0.924-2.761,0.897c14.238,39.467,72.521,24.711,65.26-16.739
				C89.984,50.002,89.103,50.316,87.445,52.034z"></path>
    </g>
  </g>
</svg>
